<?xml version="1.0" standalone="no"?>
<!DOCTYPE svg PUBLIC "-//W3C//DTD SVG 20010904//EN"
 "http://www.w3.org/TR/2001/REC-SVG-20010904/DTD/svg10.dtd">
<svg version="1.0" xmlns="http://www.w3.org/2000/svg"
 width="512.000000pt" height="512.000000pt" viewBox="0 0 512.000000 512.000000"
 preserveAspectRatio="xMidYMid meet">

<g transform="translate(0.000000,512.000000) scale(0.100000,-0.100000)"
fill="#000000" stroke="none">
<path d="M2430 5017 c-3 -3 -59 -10 -125 -16 -405 -37 -859 -210 -1186 -452
-574 -425 -930 -1045 -999 -1738 -13 -133 -13 -365 1 -511 55 -606 372 -1201
854 -1604 238 -199 466 -332 745 -433 319 -116 506 -148 850 -147 234 1 346
12 527 55 443 104 872 341 1187 655 230 229 424 513 541 793 38 92 101 286
115 356 6 33 15 74 20 90 38 124 52 547 26 791 -56 524 -296 1030 -674 1418
-395 405 -925 666 -1477 727 -113 12 -397 24 -405 16z m-1053 -1562 c13 -4 20
-11 18 -16 -10 -15 26 -120 43 -127 31 -12 -58 -21 -216 -21 l-152 -1 -170 85
c-94 47 -170 88 -170 91 0 9 620 -2 647 -11z m1204 -631 c-1 -345 -6 -634 -9
-643 -4 -9 -18 -17 -32 -18 -43 -3 -122 -22 -135 -33 -9 -8 -15 -6 -20 7 -9
20 -23 1116 -15 1137 7 19 201 188 208 181 3 -3 4 -287 3 -631z m569 195 c0
-378 2 -449 16 -497 76 -262 294 -411 561 -381 145 16 281 117 353 262 l40 79
0 212 c0 176 3 215 16 234 17 25 21 22 -59 42 -26 7 -50 10 -54 6 -20 -20 -57
97 -47 150 6 34 7 34 21 14 11 -16 18 -18 33 -10 28 15 29 14 50 -34 23 -54
77 -115 122 -138 21 -11 71 -19 141 -23 82 -5 107 -10 107 -21 0 -13 12 -18
33 -15 18 3 3 -22 -48 -83 l-55 -65 1 -103 c1 -126 -18 -214 -71 -324 -92
-191 -256 -321 -472 -376 -68 -17 -102 -20 -193 -15 -200 9 -340 72 -487 218
-72 72 -93 101 -131 180 -65 134 -75 184 -82 409 -6 198 -15 319 -22 288 -7
-29 -83 -33 -135 -7 -12 7 -20 4 -27 -8 -16 -29 -20 -2 -23 145 l-3 132 105 0
105 1 95 84 c52 47 98 85 103 85 4 0 7 -198 7 -441z m1140 282 c41 -32 75 -64
75 -71 0 -7 -45 -29 -105 -52 -58 -21 -110 -45 -116 -53 -16 -21 -31 -19 -37
6 -9 32 12 129 35 167 18 29 55 63 68 62 3 -1 39 -27 80 -59z m-1604 -60 c-12
-19 -22 -13 -39 24 -24 50 -21 54 14 18 17 -17 28 -36 25 -42z m-736 -348 l0
-163 -117 120 -116 121 1 152 c1 84 2 154 2 157 0 3 52 -47 115 -110 l115
-115 0 -162z m-745 258 l116 -114 -6 -146 c-5 -130 -14 -746 -15 -1063 0 -71
-4 -118 -10 -118 -5 0 -62 48 -126 108 l-117 107 7 400 c10 650 19 946 27 943
5 -2 61 -54 124 -117z m238 -108 c-18 -2 -48 -2 -65 0 -18 2 -4 4 32 4 36 0
50 -2 33 -4z m77 -48 c0 -3 -9 -22 -20 -42 -27 -51 -49 -58 -77 -24 -11 14
-25 22 -30 18 -11 -11 -20 -295 -10 -313 4 -8 5 -19 2 -24 -19 -30 -25 19 -25
196 l0 194 80 0 c44 0 80 -2 80 -5z m628 -4 c2 -1 -6 -14 -17 -30 -12 -16 -21
-34 -21 -40 0 -20 -54 -12 -68 9 -16 27 -32 25 -32 -2 0 -17 -2 -20 -9 -9 -5
8 -9 29 -9 48 l0 34 77 -4 c42 -3 77 -5 79 -6z m2152 -2 c27 -10 30 -13 16
-21 -22 -13 -76 0 -76 18 0 17 16 18 60 3z m-285 -106 c3 -43 7 -84 8 -92 3
-24 23 -23 35 1 10 21 11 21 11 3 1 -11 5 -57 11 -103 11 -96 7 -110 -28 -114
-21 -2 -30 -12 -44 -48 -16 -45 -17 -44 -20 180 -2 124 -1 231 1 238 9 32 20
5 26 -65z m-1313 -315 c2 -67 -1 -101 -10 -110 -6 -6 -15 -8 -19 -4 -11 10 -9
231 2 281 l8 40 8 -55 c4 -30 9 -99 11 -152z m-554 -163 c0 -110 -4 -220 -8
-245 l-6 -45 -10 50 c-10 56 -8 516 3 555 12 44 22 -101 21 -315z m-428 230
c0 -52 3 -95 7 -95 4 0 37 30 74 66 58 58 69 65 87 55 32 -17 72 -108 72 -163
0 -48 0 -48 -22 -35 -13 8 -61 22 -108 31 -47 10 -94 21 -105 26 -11 4 -56 23
-100 41 -98 40 -100 42 -86 68 13 24 0 28 -19 6 -14 -17 -40 -20 -40 -5 0 5 5
21 12 35 10 22 17 25 62 25 35 0 59 7 76 20 14 11 40 20 58 20 l32 0 0 -95z
m268 39 c12 -8 22 -19 22 -24 0 -10 -68 16 -84 31 -17 16 38 10 62 -7z m57
-54 c3 -5 1 -10 -4 -10 -6 0 -11 5 -11 10 0 6 2 10 4 10 3 0 8 -4 11 -10z
m-554 -157 c-9 -17 -10 -17 -16 0 -4 9 -4 25 0 35 6 16 7 16 16 0 7 -12 7 -24
0 -35z m453 -45 c-10 -34 -42 -76 -67 -90 -17 -9 -14 -1 14 33 19 24 38 52 42
62 9 25 20 21 11 -5z m76 -83 c0 -24 -44 -78 -87 -105 -47 -30 -83 -42 -48
-16 19 14 19 15 1 35 -18 20 -18 21 35 75 52 53 53 54 76 37 12 -9 22 -20 23
-26z m-643 -89 c-4 -9 -11 -16 -17 -16 -11 0 -14 69 -3 97 6 14 10 8 17 -24 5
-23 6 -49 3 -57z m339 4 c26 0 37 -13 40 -48 3 -23 1 -24 -39 -18 -60 10 -101
37 -105 69 l-3 27 42 -15 c23 -8 52 -15 65 -15z m1137 -132 c31 -46 86 -114
121 -153 42 -46 60 -71 50 -73 -8 -2 -14 -10 -14 -18 0 -26 -18 -15 -84 51
-64 62 -146 177 -160 222 -7 22 12 65 25 58 3 -3 31 -42 62 -87z m-1483 62 c0
-5 7 -10 15 -10 8 0 21 -11 30 -24 13 -19 15 -61 13 -267 l-3 -244 -285 0
c-219 0 -290 3 -308 13 -13 8 -21 17 -17 20 4 4 122 9 263 12 l257 5 6 175 c4
96 7 210 8 253 0 44 5 77 11 77 6 0 10 -4 10 -10z m980 -264 c0 -7 -331 -188
-335 -184 -3 2 31 39 73 81 l78 78 80 13 c94 16 104 17 104 12z m-1415 -41
c-61 -36 -94 -47 -59 -20 10 8 15 15 9 15 -11 2 84 38 100 39 6 0 -17 -15 -50
-34z m2832 -193 c42 -26 -82 -58 -187 -48 -100 10 -118 15 -123 37 -5 18 1 19
146 19 84 0 157 -4 164 -8z m-2253 -349 c0 -17 5 -22 20 -20 19 2 21 -4 24
-55 3 -53 1 -58 -18 -58 -13 0 -20 -7 -20 -20 0 -17 -7 -20 -47 -20 -69 0 -75
-7 -77 -86 l-1 -69 -38 -3 -38 -3 1 174 c1 97 3 177 5 179 2 1 45 3 97 3 89 0
93 -1 92 -22z m163 -132 c2 -85 5 -156 7 -159 3 -2 20 -5 38 -6 22 -1 34 -7
36 -19 3 -15 -6 -17 -77 -17 l-81 0 0 173 c0 96 2 176 5 179 3 3 20 5 38 4
l32 -2 2 -153z m158 14 c0 -128 -2 -140 -17 -137 -12 2 -18 -4 -18 -18 0 -13
-7 -20 -20 -20 -18 0 -19 7 -19 152 0 84 2 155 5 159 2 4 18 6 36 5 l33 -2 0
-139z m243 117 c2 -14 10 -22 23 -22 16 0 19 -7 19 -55 0 -48 -2 -55 -20 -55
-13 0 -20 -7 -20 -20 0 -16 -7 -20 -37 -20 -80 0 -83 -4 -83 -86 l0 -74 -39 0
-39 0 -2 173 c0 95 2 175 4 178 3 3 47 5 98 4 89 0 93 -1 96 -23z m422 3 c3
-11 12 -20 20 -20 15 0 28 -63 24 -123 -1 -15 -2 -55 -3 -89 -1 -56 -3 -63
-21 -63 -13 0 -20 -7 -20 -20 0 -18 -7 -20 -80 -20 -73 0 -80 2 -80 20 0 13
-7 20 -19 20 -18 0 -20 9 -20 135 -1 129 0 135 19 135 13 0 20 7 20 18 0 27 3
28 82 27 63 0 73 -3 78 -20z m475 14 c2 -3 5 -74 5 -159 l2 -155 56 -1 c44 0
58 -4 60 -16 3 -14 -10 -16 -95 -15 l-98 2 -2 165 c-1 90 2 169 7 175 9 10 55
13 65 4z m247 2 c4 -1 6 -79 5 -173 l-2 -173 -36 -3 c-34 -3 -37 -1 -41 26 -6
45 -2 308 6 320 3 6 19 9 34 7 15 -2 30 -4 34 -4z m78 -22 c0 -14 7 -19 25
-19 16 0 25 -6 25 -15 0 -8 6 -15 14 -15 8 0 18 -9 21 -20 3 -11 13 -20 22
-20 8 0 17 -9 20 -20 3 -11 12 -20 20 -20 8 0 17 -9 20 -20 7 -27 30 -25 37 3
3 13 6 56 7 95 1 62 4 72 20 72 16 0 17 -12 16 -172 -2 -156 -4 -173 -19 -176
-13 -2 -18 3 -18 17 0 14 -6 21 -20 21 -14 0 -20 7 -20 21 0 11 -4 17 -10 14
-15 -9 -42 15 -36 32 3 8 -2 13 -14 13 -14 0 -20 7 -20 21 0 11 -4 18 -9 15
-14 -9 -41 4 -41 20 0 21 -30 17 -31 -3 -1 -10 -2 -22 -4 -28 -1 -5 -3 -40 -3
-77 -2 -53 -5 -68 -17 -68 -16 0 -17 9 -19 210 0 63 3 123 7 133 8 22 27 13
27 -14z m485 11 c0 -11 -15 -16 -60 -18 l-60 -3 3 -59 4 -59 36 -3 c51 -4 51
-32 0 -36 l-38 -3 0 -60 0 -59 38 -1 c69 -2 77 -4 77 -19 0 -12 -19 -16 -97
-18 l-98 -3 0 174 c0 96 2 176 5 179 3 3 47 5 98 4 75 -1 92 -4 92 -16z
m-1165 -10 c0 -13 7 -20 20 -20 11 0 20 -7 20 -15 0 -8 9 -15 20 -15 13 0 20
-7 20 -20 0 -11 7 -20 15 -20 8 0 19 -9 25 -20 6 -11 17 -20 25 -20 7 0 17 -9
20 -20 3 -11 13 -20 21 -20 14 0 17 21 16 110 0 19 5 38 11 42 9 6 9 8 0 8 -7
0 -13 7 -13 15 0 8 9 15 19 15 18 0 19 -9 21 -175 1 -173 0 -175 -21 -175 -16
0 -20 5 -16 20 4 15 0 20 -14 20 -11 0 -23 9 -27 19 -7 19 -10 21 -33 21 -6 0
-9 9 -6 20 4 16 0 20 -19 20 -15 0 -24 6 -24 15 0 8 -7 15 -16 15 -9 0 -18 9
-21 20 -7 26 -30 26 -38 -1 -4 -12 -7 -55 -7 -96 0 -63 -2 -74 -16 -71 -15 3
-17 25 -19 176 -2 165 -2 172 17 172 13 0 20 -7 20 -20z"/>
<path d="M1397 1264 c2 -62 2 -61 23 -64 55 -8 60 -3 60 60 l0 60 -42 0 -43 0
2 -56z"/>
<path d="M1960 1260 l0 -60 40 0 c25 0 40 5 41 13 0 6 1 33 2 60 l2 47 -42 0
-43 0 0 -60z"/>
<path d="M2377 1213 c1 -60 2 -124 3 -143 0 -34 1 -35 43 -36 l42 -1 0 144 0
143 -45 0 -45 0 2 -107z"/>
</g>
</svg>
